<svg width="21" height="21" xmlns="http://www.w3.org/2000/svg" xmlns:xlink="http://www.w3.org/1999/xlink" xmlns:svgjs="http://svgjs.com/svgjs" viewBox="0.03 0 20.94 21" fill="#fff"><svg xmlns="http://www.w3.org/2000/svg" width="21" height="21" viewBox="1.007 1.984 19.986 20.043"><path paint-order="stroke fill markers" fill-rule="evenodd" d="M20.993 20.98l-1.044 1.047-5.767-5.784c-.332.3-.696.566-1.094.798a8.525 8.525 0 0 1-1.243.598 7.124 7.124 0 0 1-1.367.374c-.481.083-.953.125-1.417.125a7.716 7.716 0 0 1-3.157-.648 8.32 8.32 0 0 1-2.56-1.745 8.002 8.002 0 0 1-1.715-2.568 7.912 7.912 0 0 1-.622-3.116 8.041 8.041 0 0 1 2.337-5.734A7.998 7.998 0 0 1 9.06 1.984c1.094 0 2.13.208 3.107.623.978.416 1.831.99 2.56 1.72a8.387 8.387 0 0 1 1.74 2.568c.431.98.647 2.036.647 3.166 0 .466-.042.94-.124 1.42-.083.483-.208.94-.373 1.372a8.704 8.704 0 0 1-.597 1.246 6.605 6.605 0 0 1-.795 1.097l5.767 5.784zM1.853 10.06a7.1 7.1 0 0 0 2.087 5.086 7.386 7.386 0 0 0 2.312 1.57 6.959 6.959 0 0 0 2.81.574c.993 0 1.92-.19 2.783-.573a7.485 7.485 0 0 0 2.287-1.57 7.518 7.518 0 0 0 1.566-2.294c.38-.864.572-1.795.572-2.792 0-.997-.191-1.936-.572-2.817a7.448 7.448 0 0 0-1.566-2.318 7.159 7.159 0 0 0-2.287-1.546 7.06 7.06 0 0 0-2.784-.549 7.24 7.24 0 0 0-2.809.549 7.087 7.087 0 0 0-3.853 3.864 7.283 7.283 0 0 0-.547 2.817z"/></svg></svg>